<svg width="120" height="120" viewBox="0 0 120 120" fill="none" xmlns="http://www.w3.org/2000/svg">
<path d="M86.2647 35.0003L83 38L111.184 68.6685L114.449 65.6688L86.2647 35.0003Z" fill="black"/>
<path d="M81.6507 80C77.9817 80 75 82.9814 75 86.65C75 90.3186 77.9817 93.3001 81.6507 93.3001C85.3197 93.3001 88.3014 90.3186 88.3014 86.65C88.3014 82.9814 85.3197 80 81.6507 80ZM81.6507 89.5428C80.0545 89.5428 78.7576 88.2461 78.7576 86.65C78.7576 85.054 80.0545 83.7573 81.6507 83.7573C83.2469 83.7573 84.5437 85.054 84.5437 86.65C84.5437 88.2461 83.2469 89.5428 81.6507 89.5428Z" fill="black"/>
<path d="M81.6507 27C77.9817 27 75 29.9814 75 33.65C75 37.3186 77.9817 40.3001 81.6507 40.3001C85.3197 40.3001 88.3014 37.3186 88.3014 33.65C88.3014 29.9814 85.3197 27 81.6507 27ZM81.6507 36.5428C80.0545 36.5428 78.7576 35.246 78.7576 33.65C78.7576 32.054 80.0545 30.7573 81.6507 30.7573C83.2469 30.7573 84.5437 32.054 84.5437 33.65C84.5437 35.246 83.2469 36.5428 81.6507 36.5428Z" fill="black"/>
<path d="M83.8676 -7H79.4338V29.6528H83.8676V-7Z" fill="black"/>
<path d="M83.8676 91H79.4338V127.653H83.8676V91Z" fill="black"/>
<path d="M51.2647 35.0003L48 38L76.1841 68.6685L79.4489 65.6688L51.2647 35.0003Z" fill="black"/>
<path d="M46.6507 80C42.9817 80 40 82.9814 40 86.65C40 90.3186 42.9817 93.3001 46.6507 93.3001C50.3197 93.3001 53.3014 90.3186 53.3014 86.65C53.3014 82.9814 50.3197 80 46.6507 80ZM46.6507 89.5428C45.0545 89.5428 43.7576 88.2461 43.7576 86.65C43.7576 85.054 45.0545 83.7573 46.6507 83.7573C48.2469 83.7573 49.5437 85.054 49.5437 86.65C49.5437 88.2461 48.2469 89.5428 46.6507 89.5428Z" fill="black"/>
<path d="M46.6507 27C42.9817 27 40 29.9814 40 33.65C40 37.3186 42.9817 40.3001 46.6507 40.3001C50.3197 40.3001 53.3014 37.3186 53.3014 33.65C53.3014 29.9814 50.3197 27 46.6507 27ZM46.6507 36.5428C45.0545 36.5428 43.7576 35.246 43.7576 33.65C43.7576 32.054 45.0545 30.7573 46.6507 30.7573C48.2469 30.7573 49.5437 32.054 49.5437 33.65C49.5437 35.246 48.2469 36.5428 46.6507 36.5428Z" fill="black"/>
<path d="M48.8676 -7H44.4338V29.6528H48.8676V-7Z" fill="black"/>
<path d="M48.8676 91H44.4338V127.653H48.8676V91Z" fill="black"/>
<path d="M16.2647 35.0003L13 38L41.1841 68.6685L44.4489 65.6688L16.2647 35.0003Z" fill="black"/>
<path d="M11.6507 80C7.98173 80 5 82.9814 5 86.65C5 90.3186 7.98173 93.3001 11.6507 93.3001C15.3197 93.3001 18.3014 90.3186 18.3014 86.65C18.3014 82.9814 15.3197 80 11.6507 80ZM11.6507 89.5428C10.0545 89.5428 8.75764 88.2461 8.75764 86.65C8.75764 85.054 10.0545 83.7573 11.6507 83.7573C13.2469 83.7573 14.5437 85.054 14.5437 86.65C14.5437 88.2461 13.2469 89.5428 11.6507 89.5428Z" fill="black"/>
<path d="M11.6507 27C7.98173 27 5 29.9814 5 33.65C5 37.3186 7.98173 40.3001 11.6507 40.3001C15.3197 40.3001 18.3014 37.3186 18.3014 33.65C18.3014 29.9814 15.3197 27 11.6507 27ZM11.6507 36.5428C10.0545 36.5428 8.75764 35.246 8.75764 33.65C8.75764 32.054 10.0545 30.7573 11.6507 30.7573C13.2469 30.7573 14.5437 32.054 14.5437 33.65C14.5437 35.246 13.2469 36.5428 11.6507 36.5428Z" fill="black"/>
<path d="M13.8676 -7H9.43384V29.6528H13.8676V-7Z" fill="black"/>
<path d="M13.8676 91H9.43384V127.653H13.8676V91Z" fill="black"/>
</svg>
