<svg width="120" height="120" viewBox="0 0 120 120" fill="none" xmlns="http://www.w3.org/2000/svg">
<path fill-rule="evenodd" clip-rule="evenodd" d="M62.1572 11.7876V0H57.8461V11.7876C48.1463 12.8432 40.6017 20.9389 40.6017 30.7692C40.6017 36.883 43.5199 42.3258 48.0599 45.8214L0 117.666L3.6005 120L26.5609 85.6768C36.8024 89.9435 48.1038 92.3078 59.9753 92.3078C71.864 92.3078 83.1782 89.937 93.4284 85.6607L116.4 120L120 117.666L97.4011 83.8829C105.72 79.9021 113.252 74.6353 119.713 68.3534L116.684 65.3338C110.426 71.4184 103.105 76.5013 95.0088 80.3067L71.9412 45.8231C76.4824 42.3276 79.4016 36.884 79.4016 30.7692C79.4016 20.9389 71.8571 12.8432 62.1572 11.7876ZM68.2697 48.051C65.7615 49.216 62.9589 49.8674 60.0017 49.8674C57.0435 49.8674 54.2399 49.2155 51.7311 48.0499L28.974 82.0695C38.4975 85.9282 48.9727 88.0638 59.9753 88.0638C70.9908 88.0638 81.4801 85.9229 91.0155 82.0537L68.2697 48.051ZM75.0905 30.7692C75.0905 38.9729 68.335 45.6233 60.0017 45.6233C51.6683 45.6233 44.9128 38.9729 44.9128 30.7692C44.9128 22.5655 51.6683 15.9151 60.0017 15.9151C68.335 15.9151 75.0905 22.5655 75.0905 30.7692Z" fill="black"/>
</svg>
